<svg width="40" height="40" viewBox="0 0 40 40" fill="none" xmlns="http://www.w3.org/2000/svg">
<path d="M20 13.0435C18.5872 13.0435 17.206 13.4515 16.0313 14.2159C14.8566 14.9803 13.941 16.0667 13.4003 17.3379C12.8596 18.609 12.7182 20.0077 12.9938 21.3572C13.2694 22.7066 13.9498 23.9461 14.9488 24.919C15.9478 25.8919 17.2207 26.5544 18.6064 26.8229C19.9921 27.0913 21.4284 26.9535 22.7337 26.427C24.039 25.9005 25.1546 25.0088 25.9396 23.8648C26.7245 22.7208 27.1435 21.3759 27.1435 20C27.1378 18.1567 26.3834 16.3905 25.045 15.0871C23.7065 13.7837 21.8928 13.049 20 13.0435ZM35.4228 20C35.419 20.65 35.3701 21.299 35.2763 21.9426L39.624 25.2574C39.8134 25.4097 39.941 25.6225 39.984 25.858C40.027 26.0934 39.9827 26.3361 39.8589 26.5426L35.746 33.4574C35.621 33.6621 35.4258 33.8173 35.1949 33.8957C34.964 33.9741 34.712 33.9707 34.4834 33.8861L29.3713 31.8861C28.3069 32.6843 27.142 33.3468 25.905 33.8574L25.1406 39.1426C25.0978 39.3793 24.972 39.5943 24.7845 39.7507C24.5971 39.907 24.3596 39.9952 24.1129 40H15.8871C15.6448 39.9954 15.4113 39.911 15.2246 39.7605C15.038 39.6099 14.9092 39.4023 14.8594 39.1713L14.095 33.8861C12.8546 33.3814 11.6889 32.7179 10.6287 31.913L5.5166 33.913C5.28809 33.9977 5.03622 34.0013 4.80529 33.923C4.57437 33.8448 4.37916 33.6898 4.25399 33.4852L0.141136 26.5713C0.0173378 26.3648 -0.0270136 26.1221 0.0160077 25.8867C0.059029 25.6512 0.186619 25.4384 0.375978 25.2861L4.72368 21.9713C4.63094 21.318 4.58203 20.6595 4.57723 20C4.58095 19.35 4.62988 18.701 4.72368 18.0574L0.375978 14.7426C0.186619 14.5903 0.059029 14.3775 0.0160077 14.142C-0.0270136 13.9066 0.0173378 13.6639 0.141136 13.4574L4.25399 6.54261C4.37902 6.33791 4.57417 6.1827 4.80511 6.10429C5.03605 6.02588 5.28799 6.02929 5.5166 6.11391L10.6287 8.11391C11.6931 7.31566 12.858 6.65319 14.095 6.14261L14.8594 0.857391C14.9022 0.620652 15.028 0.405726 15.2155 0.249343C15.4029 0.0929596 15.6404 0.00482499 15.8871 0H24.1129C24.3552 0.00459264 24.5887 0.0890359 24.7754 0.239545C24.962 0.390054 25.0908 0.597738 25.1406 0.828696L25.905 6.11391C27.1469 6.61824 28.3142 7.28178 29.3758 8.08696L34.4834 6.08696C34.7119 6.00225 34.9638 5.99871 35.1947 6.07696C35.4256 6.15521 35.6208 6.31024 35.746 6.51478L39.8589 13.4296C39.9827 13.6361 40.027 13.8788 39.984 14.1142C39.941 14.3496 39.8134 14.5625 39.624 14.7148L35.2763 18.0296C35.369 18.6826 35.4179 19.3408 35.4228 20Z" fill="#323232"/>
</svg>
