<svg width="43" height="39" viewBox="0 0 43 39" fill="none" xmlns="http://www.w3.org/2000/svg">
<path d="M35.2627 13.7749C34.6668 14.316 33.8609 14.6198 33.0209 14.6198C32.1809 14.6198 31.375 14.316 30.7791 13.7749L28.1463 11.3685C27.5537 10.8239 27.221 10.087 27.221 9.31894C27.221 8.55085 27.5537 7.81398 28.1463 7.2694L34.1054 1.81996C34.1172 1.8096 34.126 1.79672 34.131 1.78249C34.136 1.76826 34.1371 1.75311 34.1342 1.7384C34.1312 1.72369 34.1244 1.70988 34.1141 1.6982C34.1039 1.68651 34.0907 1.67732 34.0757 1.67143C30.2291 0.164393 25.2421 0.932404 22.0753 3.80611C19.0452 6.55483 18.8728 10.6892 19.9826 14.2974C20.1402 14.8103 20.1399 15.353 19.9814 15.8657C19.823 16.3784 19.5128 16.8411 19.0848 17.2028L2.57697 30.9827C2.08992 31.3774 1.69635 31.8589 1.42044 32.3978C1.14454 32.9367 0.992139 33.5214 0.972608 34.1161C0.953077 34.7108 1.06683 35.3028 1.30687 35.8558C1.54692 36.4088 1.90818 36.9111 2.36844 37.3318C2.82871 37.7525 3.37825 38.0827 3.98329 38.3021C4.58833 38.5215 5.23607 38.6255 5.88669 38.6077C6.53731 38.5898 7.17706 38.4505 7.76661 38.1983C8.35616 37.9461 8.88305 37.5864 9.31487 37.1412L24.5604 22.0165C24.9511 21.6319 25.4489 21.3518 26.0005 21.2062C26.5521 21.0605 27.1366 21.0548 27.6915 21.1896C31.6094 22.1487 36.0683 21.9685 39.0588 19.2705C42.2781 16.3723 42.9727 11.2498 41.4121 8.31817C41.405 8.30536 41.3948 8.29426 41.3822 8.28577C41.3695 8.27729 41.3549 8.27166 41.3394 8.26937C41.3239 8.26707 41.3081 8.26816 41.2931 8.27255C41.2782 8.27694 41.2646 8.28451 41.2535 8.29462L35.2627 13.7749Z" fill="black"/>
</svg>
