<svg display="none" xmlns="http://www.w3.org/2000/svg" xmlns:xlink="http://www.w3.org/1999/xlink">
    <symbol viewBox="0 0 40 40" id="vk">
        <path d="M40 20c0 11.045-8.955 20-20 20S0 31.045 0 20C0 8.954 8.955 0 20 0s20 8.954 20 20zm-10.523 4.208c-2.206-2.048-1.912-1.718.749-5.261 1.619-2.157 2.27-3.473 2.062-4.037-.19-.538-1.38-.395-1.38-.395l-3.965.025s-.295-.04-.512.089c-.21.127-.349.425-.349.425s-.624 1.668-1.46 3.088c-1.762 2.996-2.47 3.154-2.758 2.967-.67-.435-.502-1.741-.502-2.67 0-2.903.44-4.113-.859-4.426-.43-.105-.746-.173-1.847-.185-1.413-.013-2.61.006-3.286.335-.451.222-.8.713-.587.741.261.035.855.162 1.168.588.408.553.39 1.794.39 1.794s.238 3.414-.543 3.84c-.532.291-1.265-.304-2.836-3.02a25.05 25.05 0 01-1.415-2.93s-.117-.29-.33-.444c-.251-.187-.607-.251-.607-.251l-3.762.015s-.567-.003-.773.243c-.185.218-.015.633-.015.633s2.945 6.822 6.374 10.295c3.062 3.185 6.535 2.828 6.535 2.828h1.571s.477.095.72-.16c.222-.242.215-.543.215-.543s-.029-2.114.95-2.427c.968-.303 2.209 2.045 3.525 2.944.995.683 1.75.533 1.75.533l3.52-.047s1.84-.115.966-1.564c-.166-.117-.602-1.069-2.71-3.023z"></path>
    </symbol>
    <symbol viewBox="0 0 40 40" id="insta">
      <path d="M20 14.685A5.314 5.314 0 0014.687 20 5.317 5.317 0 0020 25.316a5.316 5.316 0 000-10.63zm0 8.79A3.472 3.472 0 0116.524 20 3.472 3.472 0 0120 16.525 3.485 3.485 0 0123.476 20 3.472 3.472 0 0120 23.475zm5.847-10.734a1.22 1.22 0 00-1.227 1.228c0 .683.543 1.226 1.227 1.226a1.22 1.22 0 001.228-1.226c0-.684-.546-1.228-1.228-1.228z"></path>
      <path d="M20.003.2C9.064.2.199 9.063.199 20c0 10.935 8.865 19.8 19.804 19.8 10.932 0 19.8-8.864 19.8-19.8 0-10.937-8.868-19.8-19.8-19.8zM30.22 24.353c0 3.231-2.638 5.868-5.888 5.868h-8.666c-3.25 0-5.89-2.638-5.89-5.848v-8.728c0-3.229 2.638-5.866 5.89-5.866h8.666c3.251 0 5.888 2.637 5.888 5.866v8.708z"></path>
    </symbol>
    <symbol viewBox="0 0 40 40" id="facebook">
    <path d="M40 20c0 11.045-8.954 20-19.997 20C8.954 40 0 31.045 0 20 0 8.953 8.954 0 20.003 0 31.046 0 40 8.953 40 20zM16.66 32.5h5.192V20.008h3.504l.453-4.412h-3.957v-2.595c0-.973.647-1.201 1.1-1.201h2.793V7.515L21.901 7.5c-4.27 0-5.24 3.195-5.24 5.24v2.856h-2.469v4.412h2.469V32.5z"></path>
  </symbol>
  <symbol viewBox="0 0 11 12" id="bread">
    <path d="M8.27 5.813L5.21.468h1.735l3.739 5.343-3.739 5.344H5.223L8.27 5.812zm-4.536 0L.641.468h1.77L6.09 5.812l-3.68 5.344H.64l3.094-5.344z" fill="#000"></path>
  </symbol>
  <symbol viewBox="0 0 24 24" id="icon-poisk">
    <path d="M21.172 24l-7.387-7.387A8.945 8.945 0 019 18c-4.971 0-9-4.029-9-9s4.029-9 9-9 9 4.029 9 9a8.951 8.951 0 01-1.387 4.785L24 21.172 21.172 24zM9 16c3.859 0 7-3.14 7-7s-3.141-7-7-7-7 3.14-7 7 3.141 7 7 7z"></path>
  </symbol>
  <symbol viewBox="0 0 43 39" id="repair">
    <path d="M35.2627 13.7749C34.6668 14.316 33.8609 14.6198 33.0209 14.6198C32.1809 14.6198 31.375 14.316 30.7791 13.7749L28.1463 11.3685C27.5537 10.8239 27.221 10.087 27.221 9.31894C27.221 8.55085 27.5537 7.81398 28.1463 7.2694L34.1054 1.81996C34.1172 1.8096 34.126 1.79672 34.131 1.78249C34.136 1.76826 34.1371 1.75311 34.1342 1.7384C34.1312 1.72369 34.1244 1.70988 34.1141 1.6982C34.1039 1.68651 34.0907 1.67732 34.0757 1.67143C30.2291 0.164393 25.2421 0.932404 22.0753 3.80611C19.0452 6.55483 18.8728 10.6892 19.9826 14.2974C20.1402 14.8103 20.1399 15.353 19.9814 15.8657C19.823 16.3784 19.5128 16.8411 19.0848 17.2028L2.57697 30.9827C2.08992 31.3774 1.69635 31.8589 1.42044 32.3978C1.14454 32.9367 0.992139 33.5214 0.972608 34.1161C0.953077 34.7108 1.06683 35.3028 1.30687 35.8558C1.54692 36.4088 1.90818 36.9111 2.36844 37.3318C2.82871 37.7525 3.37825 38.0827 3.98329 38.3021C4.58833 38.5215 5.23607 38.6255 5.88669 38.6077C6.53731 38.5898 7.17706 38.4505 7.76661 38.1983C8.35616 37.9461 8.88305 37.5864 9.31487 37.1412L24.5604 22.0165C24.9511 21.6319 25.4489 21.3518 26.0005 21.2062C26.5521 21.0605 27.1366 21.0548 27.6915 21.1896C31.6094 22.1487 36.0683 21.9685 39.0588 19.2705C42.2781 16.3723 42.9727 11.2498 41.4121 8.31817C41.405 8.30536 41.3948 8.29426 41.3822 8.28577C41.3695 8.27729 41.3549 8.27166 41.3394 8.26937C41.3239 8.26707 41.3081 8.26816 41.2931 8.27255C41.2782 8.27694 41.2646 8.28451 41.2535 8.29462L35.2627 13.7749Z"></path>
  </symbol>
  <symbol viewBox="0 0 40 40" id="gear">
    <path d="M20 13.0435C18.5872 13.0435 17.206 13.4515 16.0313 14.2159C14.8566 14.9803 13.941 16.0667 13.4003 17.3379C12.8596 18.609 12.7182 20.0077 12.9938 21.3572C13.2694 22.7066 13.9498 23.9461 14.9488 24.919C15.9478 25.8919 17.2207 26.5544 18.6064 26.8229C19.9921 27.0913 21.4284 26.9535 22.7337 26.427C24.039 25.9005 25.1546 25.0088 25.9396 23.8648C26.7245 22.7208 27.1435 21.3759 27.1435 20C27.1378 18.1567 26.3834 16.3905 25.045 15.0871C23.7065 13.7837 21.8928 13.049 20 13.0435ZM35.4228 20C35.419 20.65 35.3701 21.299 35.2763 21.9426L39.624 25.2574C39.8134 25.4097 39.941 25.6225 39.984 25.858C40.027 26.0934 39.9827 26.3361 39.8589 26.5426L35.746 33.4574C35.621 33.6621 35.4258 33.8173 35.1949 33.8957C34.964 33.9741 34.712 33.9707 34.4834 33.8861L29.3713 31.8861C28.3069 32.6843 27.142 33.3468 25.905 33.8574L25.1406 39.1426C25.0978 39.3793 24.972 39.5943 24.7845 39.7507C24.5971 39.907 24.3596 39.9952 24.1129 40H15.8871C15.6448 39.9954 15.4113 39.911 15.2246 39.7605C15.038 39.6099 14.9092 39.4023 14.8594 39.1713L14.095 33.8861C12.8546 33.3814 11.6889 32.7179 10.6287 31.913L5.5166 33.913C5.28809 33.9977 5.03622 34.0013 4.80529 33.923C4.57437 33.8448 4.37916 33.6898 4.25399 33.4852L0.141136 26.5713C0.0173378 26.3648 -0.0270136 26.1221 0.0160077 25.8867C0.059029 25.6512 0.186619 25.4384 0.375978 25.2861L4.72368 21.9713C4.63094 21.318 4.58203 20.6595 4.57723 20C4.58095 19.35 4.62988 18.701 4.72368 18.0574L0.375978 14.7426C0.186619 14.5903 0.059029 14.3775 0.0160077 14.142C-0.0270136 13.9066 0.0173378 13.6639 0.141136 13.4574L4.25399 6.54261C4.37902 6.33791 4.57417 6.1827 4.80511 6.10429C5.03605 6.02588 5.28799 6.02929 5.5166 6.11391L10.6287 8.11391C11.6931 7.31566 12.858 6.65319 14.095 6.14261L14.8594 0.857391C14.9022 0.620652 15.028 0.405726 15.2155 0.249343C15.4029 0.0929596 15.6404 0.00482499 15.8871 0H24.1129C24.3552 0.00459264 24.5887 0.0890359 24.7754 0.239545C24.962 0.390054 25.0908 0.597738 25.1406 0.828696L25.905 6.11391C27.1469 6.61824 28.3142 7.28178 29.3758 8.08696L34.4834 6.08696C34.7119 6.00225 34.9638 5.99871 35.1947 6.07696C35.4256 6.15521 35.6208 6.31024 35.746 6.51478L39.8589 13.4296C39.9827 13.6361 40.027 13.8788 39.984 14.1142C39.941 14.3496 39.8134 14.5625 39.624 14.7148L35.2763 18.0296C35.369 18.6826 35.4179 19.3408 35.4228 20Z"></path>
  </symbol>
  <symbol fill="none" xmlns="http://www.w3.org/2000/svg" viewBox="0 0 43 39" id="repair">
    <path d="M35.2627 13.7749C34.6668 14.316 33.8609 14.6198 33.0209 14.6198C32.1809 14.6198 31.375 14.316 30.7791 13.7749L28.1463 11.3685C27.5537 10.8239 27.221 10.087 27.221 9.31894C27.221 8.55085 27.5537 7.81398 28.1463 7.2694L34.1054 1.81996C34.1172 1.8096 34.126 1.79672 34.131 1.78249C34.136 1.76826 34.1371 1.75311 34.1342 1.7384C34.1312 1.72369 34.1244 1.70988 34.1141 1.6982C34.1039 1.68651 34.0907 1.67732 34.0757 1.67143C30.2291 0.164393 25.2421 0.932404 22.0753 3.80611C19.0452 6.55483 18.8728 10.6892 19.9826 14.2974C20.1402 14.8103 20.1399 15.353 19.9814 15.8657C19.823 16.3784 19.5128 16.8411 19.0848 17.2028L2.57697 30.9827C2.08992 31.3774 1.69635 31.8589 1.42044 32.3978C1.14454 32.9367 0.992139 33.5214 0.972608 34.1161C0.953077 34.7108 1.06683 35.3028 1.30687 35.8558C1.54692 36.4088 1.90818 36.9111 2.36844 37.3318C2.82871 37.7525 3.37825 38.0827 3.98329 38.3021C4.58833 38.5215 5.23607 38.6255 5.88669 38.6077C6.53731 38.5898 7.17706 38.4505 7.76661 38.1983C8.35616 37.9461 8.88305 37.5864 9.31487 37.1412L24.5604 22.0165C24.9511 21.6319 25.4489 21.3518 26.0005 21.2062C26.5521 21.0605 27.1366 21.0548 27.6915 21.1896C31.6094 22.1487 36.0683 21.9685 39.0588 19.2705C42.2781 16.3723 42.9727 11.2498 41.4121 8.31817C41.405 8.30536 41.3948 8.29426 41.3822 8.28577C41.3695 8.27729 41.3549 8.27166 41.3394 8.26937C41.3239 8.26707 41.3081 8.26816 41.2931 8.27255C41.2782 8.27694 41.2646 8.28451 41.2535 8.29462L35.2627 13.7749Z" fill="black"></path>
  </symbol>
  <symbol fill="none" xmlns="http://www.w3.org/2000/svg" viewBox="0 0 50 63" id="baks">
    <g filter="url(#filter0_d_866:148)">
      <path d="M23.4089 51.69V48.3821C15.7047 47.9661 11.0242 44.2477 11 38.6111H17.98C18.1516 41.0034 20.2931 42.8299 23.4089 43.1524V34.2514L20.8137 33.6156C14.9001 32.3277 11.7358 29.1298 11.7358 24.3441C11.7358 18.7029 16.0489 15.0036 23.4089 14.4514V11H26.5111V14.4514C34.0136 15.0236 38.0475 18.7874 38.1444 24.0789H31.1644C31.0908 21.8937 29.6298 20.138 26.5111 19.9009V28.2569L29.4989 28.9181C35.78 30.206 38.92 33.2523 38.92 38.2478C38.92 44.0915 34.6796 47.8644 26.5111 48.3585V51.69H23.4089ZM23.4089 27.712V19.9009C20.7342 20.039 18.8263 21.5785 18.8263 23.7638C18.8263 25.7892 20.4152 27.1134 23.4089 27.712ZM26.5111 34.7964V43.1524C30.2095 43.0125 31.9768 41.4339 31.9768 38.9953C31.9768 36.7628 30.2095 35.2596 26.5111 34.7964Z" fill="black"></path>
    </g>
    <defs>
      <filter id="filter0_d_866:148" x="0" y="0" width="49.92" height="62.69" filterUnits="userSpaceOnUse" color-interpolation-filters="sRGB">
        <feFlood flood-opacity="0" result="BackgroundImageFix"></feFlood>
        <feColorMatrix in="SourceAlpha" type="matrix" values="0 0 0 0 0 0 0 0 0 0 0 0 0 0 0 0 0 0 127 0" result="hardAlpha"></feColorMatrix>
        <feOffset></feOffset>
        <feGaussianBlur stdDeviation="5.5"></feGaussianBlur>
        <feComposite in2="hardAlpha" operator="out"></feComposite>
        <feColorMatrix type="matrix" values="0 0 0 0 1 0 0 0 0 1 0 0 0 0 1 0 0 0 1 0"></feColorMatrix>
        <feBlend mode="normal" in2="BackgroundImageFix" result="effect1_dropShadow_866:148"></feBlend>
        <feBlend mode="normal" in="SourceGraphic" in2="effect1_dropShadow_866:148" result="shape"></feBlend>
      </filter>
    </defs>
  </symbol>
  <symbol fill="none" xmlns="http://www.w3.org/2000/svg" viewBox="0 0 21 21" id="search-icon">
    <path d="M14.667 14.6665L20.0003 19.9999" stroke="#F6F6F6" stroke-width="2" stroke-linejoin="round"></path>
    <path d="M16.679 8.51933C16.679 12.7943 13.1293 16.2887 8.7145 16.2887C4.29972 16.2887 0.75 12.7943 0.75 8.51933C0.75 4.24437 4.29972 0.75 8.7145 0.75C13.1293 0.75 16.679 4.24437 16.679 8.51933Z" stroke="#F6F6F6" stroke-width="1.5"></path>
  </symbol>
  <symbol fill="none" xmlns="http://www.w3.org/2000/svg" viewBox="0 0 44 52" id="location">
    <g filter="url(#filter0_d_94_52)">
      <path fill-rule="evenodd" clip-rule="evenodd" d="M21.4023 11.0138C19.2173 11.112 17.1038 11.8664 15.5144 13.1153C15.0824 13.4548 14.3971 14.1392 14.0505 14.5773C12.7615 16.2064 12.0594 18.2791 11.9838 20.6789C11.9531 21.6529 11.9913 22.0073 12.2216 22.8861C13.029 25.9669 15.9889 31.5968 20.4004 38.4426C21.3276 39.8814 21.9692 40.8428 22.0022 40.8427C22.0435 40.8425 23.3909 38.7879 24.409 37.1727C29.2706 29.46 31.8791 24.0701 32.0359 21.4131C32.0649 20.9215 31.9962 19.8771 31.8897 19.1918C31.3594 15.7787 29.3881 13.1569 26.3882 11.8752C24.8347 11.2113 23.2188 10.9322 21.4023 11.0138ZM22.8417 17.6129C24.0116 17.8998 24.903 18.6972 25.304 19.8153C25.4412 20.1981 25.4511 20.2644 25.4524 20.8084C25.454 21.506 25.3911 21.772 25.0854 22.3628C24.9055 22.7102 24.8073 22.836 24.4434 23.185C23.9741 23.6351 23.5791 23.867 22.9782 24.0452C22.533 24.1772 21.8229 24.2089 21.3539 24.1178C19.6945 23.7954 18.5437 22.4673 18.5396 20.87C18.5381 20.2976 18.6362 19.8911 18.9035 19.3619C19.3448 18.4883 20.1813 17.8426 21.1757 17.6079C21.6309 17.5006 22.3928 17.5028 22.8417 17.6129Z" fill="black"></path>
    </g>
    <defs>
      <filter id="filter0_d_94_52" x="0.974609" y="0" width="42.0684" height="51.8428" filterUnits="userSpaceOnUse" color-interpolation-filters="sRGB">
        <feFlood flood-opacity="0" result="BackgroundImageFix"></feFlood>
        <feColorMatrix in="SourceAlpha" type="matrix" values="0 0 0 0 0 0 0 0 0 0 0 0 0 0 0 0 0 0 127 0" result="hardAlpha"></feColorMatrix>
        <feOffset></feOffset>
        <feGaussianBlur stdDeviation="5.5"></feGaussianBlur>
        <feComposite in2="hardAlpha" operator="out"></feComposite>
        <feColorMatrix type="matrix" values="0 0 0 0 1 0 0 0 0 1 0 0 0 0 1 0 0 0 1 0"></feColorMatrix>
        <feBlend mode="normal" in2="BackgroundImageFix" result="effect1_dropShadow_94_52"></feBlend>
        <feBlend mode="normal" in="SourceGraphic" in2="effect1_dropShadow_94_52" result="shape"></feBlend>
      </filter>
    </defs>
  </symbol>
  <symbol fill="none" xmlns="http://www.w3.org/2000/svg" viewBox="0 0 15 15" id="close_region">
    <path d="M1.19118 13.6232L7.30882 7.5942M7.30882 7.5942L14 1M7.30882 7.5942L13.8088 14M7.30882 7.5942L1 1.37681" stroke="#7D7D7D" stroke-width="2"></path>
  </symbol>
  <symbol fill="none" xmlns="http://www.w3.org/2000/svg" viewBox="0 0 14 14" id="copy">
    <path d="M7.12726 4.81437C6.81137 4.81437 6.52858 4.86494 6.27888 4.96607C6.03219 5.0672 5.8231 5.21357 5.65162 5.40519C5.48014 5.59415 5.34928 5.82435 5.25903 6.09581C5.16877 6.3646 5.12365 6.668 5.12365 7.00599C5.12365 7.45842 5.19585 7.8483 5.34025 8.17565C5.48466 8.50033 5.70427 8.7505 5.9991 8.92615C6.29392 9.09913 6.66697 9.18563 7.11823 9.18563C7.39801 9.18563 7.67028 9.16168 7.93502 9.11377C8.19976 9.06587 8.47353 9.00067 8.75632 8.91816V9.73253C8.48857 9.82568 8.21781 9.89355 7.94404 9.93613C7.67028 9.97871 7.35439 10 6.99639 10C6.3225 10 5.76294 9.87625 5.31769 9.62874C4.87545 9.38124 4.54452 9.0326 4.32491 8.58283C4.1083 8.13307 4 7.60612 4 7.002C4 6.56021 4.06919 6.15569 4.20758 5.78842C4.34597 5.42116 4.54753 5.10446 4.81227 4.83832C5.07702 4.56953 5.40343 4.36327 5.79152 4.21956C6.18261 4.07319 6.62936 4 7.13177 4C7.4627 4 7.78761 4.03327 8.1065 4.0998C8.4284 4.16367 8.72623 4.25549 9 4.37525L8.62094 5.16567C8.3923 5.06986 8.15313 4.98736 7.90343 4.91816C7.65373 4.84897 7.39501 4.81437 7.12726 4.81437Z" fill="#8A8A8A"></path>
    <circle cx="7" cy="7" r="6.5" stroke="#8A8A8A"></circle>
  </symbol>
  <symbol fill="none" xmlns="http://www.w3.org/2000/svg" viewBox="0 0 22 22" id="search-form-icon">
    <path d="M1 1L21 21M21 21V8.87879M21 21H9.78788" stroke="white" stroke-width="2"></path>
  </symbol>
  <symbol fill="none" xmlns="http://www.w3.org/2000/svg" viewBox="0 0 11 6" id="select-down">
    <path d="M5.5 6L0.736861 -2.38418e-07L10.2631 -2.38418e-07L5.5 6Z" fill="#3F3F3F"></path>
  </symbol>
</svg>